Coordinates
version=1
nRows=10
nColumns=22
inDegrees=yes

Units are S.I. units (second, meters, Newtons, ...)
If the header above contains a line with 'inDegrees', this indicates whether rotational values are in degrees (yes) or radians (no).

endheader
time	pelvis_tilt	pelvis_list	pelvis_rotation	pelvis_tx	pelvis_ty	pelvis_tz	hip_flexion_r	hip_adduction_r	hip_rotation_r	knee_angle_r	ankle_angle_r	subtalar_angle_r	hip_flexion_l	hip_adduction_l	hip_rotation_l	knee_angle_l	ankle_angle_l	subtalar_angle_l	lumbar_extension	lumbar_bending	lumbar_rotation
      4.34000000	     -0.67345493	      0.56083707	     -6.07753585	     -1.19774775	      1.07578610	     -0.26096313	     -1.23281094	      3.07574008	     -3.93571920	    -12.49749021	     14.26578789	     -6.25321738	     22.06187815	     -4.33748861	    -10.27003084	    -28.78997090	     12.45170105	      0.86991132	    -10.36349385	     -5.09428095	     -0.75435996
      4.35000000	     -0.57109088	      0.42971007	     -6.32110677	     -1.20112229	      1.07621178	     -0.25986391	     -1.19552258	      3.26569248	     -3.68636725	    -12.43030730	     14.04496898	     -6.29866065	     21.89711903	     -4.53645607	     -9.61270611	    -29.92048466	     12.38701382	      0.59953511	    -10.40295688	     -4.98168268	     -0.66040619
      4.36000000	     -0.50488420	      0.29289937	     -6.54533418	     -1.20437952	      1.07650748	     -0.25889869	     -1.13170105	      3.45667600	     -3.48112634	    -12.35806014	     13.86718300	     -6.37268791	     21.74981370	     -4.70184751	     -8.81145667	    -31.02724336	     12.33069495	      0.24526686	    -10.39456395	     -4.84829074	     -0.55664281
      4.37000000	     -0.41812449	      0.13777029	     -6.76359563	     -1.20754153	      1.07679168	     -0.25801327	     -1.10515497	      3.66080214	     -3.25174854	    -12.27731735	     13.67799797	     -6.40353225	     21.55545629	     -4.86699284	     -7.96380413	    -32.10290372	     12.28424669	      0.04397178	    -10.41258533	     -4.68731130	     -0.49854910
      4.38000000	     -0.35397623	     -0.02717893	     -6.95076948	     -1.21058380	      1.07700225	     -0.25726322	     -1.07168729	      3.87041314	     -3.06985387	    -12.18279225	     13.50465311	     -6.43199558	     21.35884501	     -5.01478789	     -7.05083878	    -33.13183374	     12.25900233	     -0.16149357	    -10.40004560	     -4.50165582	     -0.45673208
      4.39000000	     -0.31732265	     -0.19636994	     -7.10205505	     -1.21349939	      1.07714601	     -0.25664212	     -1.02771108	      4.08145683	     -2.94247228	    -12.06979591	     13.34685646	     -6.45202900	     21.16387588	     -5.14788293	     -6.10948380	    -34.10331851	     12.25200458	     -0.37747231	    -10.34753672	     -4.29721804	     -0.43387537
      4.40000000	     -0.27368273	     -0.37415199	     -7.23044316	     -1.21630477	      1.07729509	     -0.25612402	     -1.00751273	      4.29625894	     -2.81710675	    -11.94419015	     13.18097116	     -6.44652671	     20.92737592	     -5.28208229	     -5.18962464	    -35.00378530	     12.26390093	     -0.52961721	    -10.30117704	     -4.07356302	     -0.45461094
      4.41000000	     -0.23479851	     -0.54949330	     -7.32719594	     -1.21898630	      1.07744032	     -0.25570477	     -1.00057696	      4.50521910	     -2.72184358	    -11.79840076	     13.02064996	     -6.42477142	     20.66166047	     -5.40747024	     -4.29333788	    -35.82371510	     12.29718833	     -0.65297737	    -10.24199256	     -3.84551435	     -0.50385130
      4.42000000	     -0.20297563	     -0.71691630	     -7.38939187	     -1.22152893	      1.07758410	     -0.25539326	     -1.00225359	      4.70165497	     -2.67372605	    -11.63527508	     12.86603697	     -6.38619003	     20.36785630	     -5.52093360	     -3.43275611	    -36.55506865	     12.35120131	     -0.76500840	    -10.16395551	     -3.61818758	     -0.57862772
      4.43000000	     -0.17140414	     -0.86858646	     -7.42458523	     -1.22393286	      1.07774179	     -0.25517259	     -1.01887584	      4.87752803	     -2.65634157	    -11.45404070	     12.72055317	     -6.33031223	     20.03683702	     -5.61997030	     -2.62689254	    -37.19002944	     12.41972765	     -0.86282431	    -10.07340446	     -3.40237068	     -0.67683228
